<svg width="39" height="30" viewBox="0 0 39 30" fill="none" xmlns="http://www.w3.org/2000/svg">
    <path d="M33.7812 22.3034C34.613 22.4715 35.4797 22.321 36.1992 21.8838C36.9187 21.4466 37.4348 20.7566 37.639 19.9589V19.957C37.7427 19.5522 37.7628 19.1317 37.6982 18.7194C37.6337 18.3072 37.4857 17.9113 37.2628 17.5543C37.0399 17.1974 36.7465 16.8865 36.3992 16.6393C36.052 16.3921 35.6577 16.2136 35.2391 16.1138L25.9084 13.8798L15.3951 0.443663L10.8602 0L16.8367 12.9924L7.76498 12.1071L3.0507 4.55691L0.236816 5.16818L2.76523 16.0527L33.7812 22.3034ZM1.4786 26.0563H38.1814V30H1.4786V26.0563Z" fill="#1A1A1A"/>
</svg>
