<?xml version="1.0" encoding="utf-8"?><svg width="79" height="64" viewBox="0 0 79 64" xmlns="http://www.w3.org/2000/svg" xmlns:xlink="http://www.w3.org/1999/xlink"><view id="icon-car" viewBox="0 30 36 34"/><svg width="36" height="34" fill="none" viewBox="0 0 36 34" y="30" xmlns="http://www.w3.org/2000/svg"><path d="M29.404 7.865L27.625 2.62A3.832 3.832 0 0026.207.723 3.94 3.94 0 0023.927 0H12.073a3.94 3.94 0 00-2.28.723A3.832 3.832 0 008.375 2.62L6.596 7.865a2.59 2.59 0 00-1.16.941c-.284.42-.436.912-.436 1.416v6.39c0 .942.525 1.757 1.3 2.2v2.91c0 .34.137.664.38.904.245.24.575.374.92.374h1.3c.345 0 .675-.135.92-.374.243-.24.38-.565.38-.904v-2.555h15.6v2.555c0 .34.137.664.38.904.245.24.575.374.92.374h1.3c.345 0 .675-.135.92-.374.243-.24.38-.565.38-.904v-2.91c.394-.222.722-.542.95-.929a2.51 2.51 0 00.35-1.272v-6.389c0-.504-.151-.996-.436-1.416a2.59 2.59 0 00-1.16-.941zm-17.33-5.31h11.851c.56 0 1.057.35 1.234.875l1.438 4.237H9.403L10.84 3.43a1.28 1.28 0 01.473-.633c.221-.157.487-.242.76-.241zM9.55 15.334a1.98 1.98 0 01-1.38-.562 1.916 1.916 0 01-.57-1.356 1.89 1.89 0 01.572-1.355 1.955 1.955 0 011.38-.561c.517 0 1.013.202 1.378.562a1.9 1.9 0 01.571 1.356 1.9 1.9 0 01-.571 1.355c-.366.36-.863.562-1.38.561zm16.9 0a1.979 1.979 0 01-1.38-.562 1.89 1.89 0 010-2.712 1.955 1.955 0 011.381-.56c.518 0 1.014.202 1.38.562a1.9 1.9 0 01.57 1.356 1.9 1.9 0 01-.572 1.355c-.365.36-.862.562-1.379.561zM36 30H0v4h36v-4z" fill="#1A1A1A"/></svg><view id="icon-plane-landing" viewBox="40 0 39 30"/><svg width="39" height="30" fill="none" viewBox="0 0 39 30" x="40" xmlns="http://www.w3.org/2000/svg"><path d="M33.781 22.303a3.377 3.377 0 002.418-.42 3.182 3.182 0 001.44-1.924v-.002a3.07 3.07 0 00-.376-2.403 3.214 3.214 0 00-.864-.915 3.333 3.333 0 00-1.16-.525l-9.33-2.234L15.394.444 10.86 0l5.977 12.992-9.072-.885-4.714-7.55-2.814.611 2.528 10.885 31.016 6.25zM1.48 26.056H38.18V30H1.48v-3.944z" fill="#1A1A1A"/></svg><view id="icon-plane-takeoff" viewBox="0 0 40 30"/><svg width="40" height="30" fill="none" viewBox="0 0 40 30" xmlns="http://www.w3.org/2000/svg"><path d="M2.003 25.994h36.049V30H2.002v-4.006zM39.07 5.061a3.225 3.225 0 00-4.077-2.04l-8.959 2.987L10.014 0 6.008 2.003l12.017 8.01-8.011 4.006-8.011-4.005L0 12.016l8.01 8.011L37.146 9.102a3.226 3.226 0 001.926-4.041z" fill="#1A1A1A"/></svg></svg>