<svg width="36" height="34" viewBox="0 0 36 34" fill="none" xmlns="http://www.w3.org/2000/svg">
    <path d="M29.4036 7.86472L27.6252 2.62072C27.3672 1.85723 26.871 1.19306 26.2071 0.722594C25.5431 0.252126 24.7452 -0.000713263 23.9267 1.51132e-06H12.0733C11.2548 -0.000713263 10.4569 0.252126 9.79295 0.722594C9.129 1.19306 8.63278 1.85723 8.3748 2.62072L6.5964 7.86472C6.12349 8.05922 5.71963 8.38679 5.43559 8.80625C5.15155 9.22571 5 9.71834 5 10.2222V16.6111C5 17.5541 5.5252 18.3693 6.3 18.8127V21.7222C6.3 22.0611 6.43696 22.3861 6.68076 22.6257C6.92456 22.8654 7.25522 23 7.6 23H8.9C9.24478 23 9.57544 22.8654 9.81924 22.6257C10.063 22.3861 10.2 22.0611 10.2 21.7222V19.1667H25.8V21.7222C25.8 22.0611 25.937 22.3861 26.1808 22.6257C26.4246 22.8654 26.7552 23 27.1 23H28.4C28.7448 23 29.0754 22.8654 29.3192 22.6257C29.563 22.3861 29.7 22.0611 29.7 21.7222V18.8127C30.0944 18.5904 30.4222 18.2698 30.6505 17.8833C30.8787 17.4968 30.9993 17.058 31 16.6111V10.2222C31 9.71834 30.8485 9.22571 30.5644 8.80625C30.2804 8.38679 29.8765 8.05922 29.4036 7.86472ZM12.0733 2.55556H23.9254C24.4857 2.55556 24.9823 2.90567 25.1591 3.42956L26.5969 7.66667H9.4031L10.8396 3.42956C10.9259 3.17502 11.0914 2.95362 11.3129 2.79675C11.5343 2.63988 11.8003 2.55549 12.0733 2.55556ZM9.55 15.3333C9.29384 15.3332 9.0402 15.2836 8.80357 15.1871C8.56694 15.0907 8.35195 14.9494 8.17087 14.7713C7.9898 14.5932 7.84619 14.3818 7.74824 14.1492C7.65029 13.9165 7.59991 13.6672 7.6 13.4154C7.60009 13.1636 7.65062 12.9143 7.74873 12.6817C7.84684 12.4491 7.9906 12.2378 8.17179 12.0598C8.35299 11.8819 8.56807 11.7407 8.80477 11.6444C9.04147 11.5481 9.29514 11.4986 9.5513 11.4987C10.0686 11.4989 10.5647 11.7011 10.9304 12.0607C11.2961 12.4204 11.5015 12.9082 11.5013 13.4167C11.5011 13.9252 11.2954 14.4128 10.9295 14.7722C10.5636 15.1317 10.0673 15.3335 9.55 15.3333ZM26.45 15.3333C26.1938 15.3332 25.9402 15.2836 25.7036 15.1871C25.4669 15.0907 25.2519 14.9494 25.0709 14.7713C24.8898 14.5932 24.7462 14.3818 24.6482 14.1492C24.5503 13.9165 24.4999 13.6672 24.5 13.4154C24.5001 13.1636 24.5506 12.9143 24.6487 12.6817C24.7468 12.4491 24.8906 12.2378 25.0718 12.0598C25.253 11.8819 25.4681 11.7407 25.7048 11.6444C25.9415 11.5481 26.1951 11.4986 26.4513 11.4987C26.9686 11.4989 27.4647 11.7011 27.8304 12.0607C28.1961 12.4204 28.4015 12.9082 28.4013 13.4167C28.4011 13.9252 28.1954 14.4128 27.8295 14.7722C27.4636 15.1317 26.9673 15.3335 26.45 15.3333Z" fill="#1A1A1A"/>
    <path d="M36 30H0V34H36V30Z" fill="#1A1A1A"/>
</svg>
